# xmcd CD database file
# Copyright (C) 1996 Ti Kan
#
# Track frame offsets:
#  187
#  13230
#  26487
#  36555
#  51237
#  65610
#  78677
#  92182
#  104670
#  117727
#  131602
#  143362
#
# Disc length: 2066 seconds
#
# Revision: 1
# Processed by: cddbd v1.4b41PL1 Copyright (c) Steve Scherf et al.
# Submitted via: CDWizzard Release:4.12
#
DISCID=b208100c
DTITLE=Howlin' Wolf - More Real Folk Blues
DYEAR=1900
DGENRE=
TTITLE0=Just My Kind
TTITLE1=I've Got A Woman
TTITLE2=Work For Your Money
TTITLE3=I'll Be Around
TTITLE4=You Can't Be Beat
TTITLE5=You Gonna Wreck My Life
TTITLE6=I Love My Baby
TTITLE7=Neighbors
TTITLE8=I'm The Wolf
TTITLE9=Rockin' Daddy
TTITLE10=Who Will Be Next?
TTITLE11=I Have A Little Girl
EXTD=
EXTT0=
EXTT1=
EXTT2=
EXTT3=
EXTT4=
EXTT5=
EXTT6=
EXTT7=
EXTT8=
EXTT9=
EXTT10=
EXTT11=
PLAYORDER=
